<svg xmlns="http://www.w3.org/2000/svg" viewBox="0 0 498.57 763.9"><symbol viewBox="0 0 498.57 763.9" id="icon-1"><g id="Layer_2" data-name="Layer 2"><g id="Layer_2-2" data-name="Layer 2"><path d="M172.05,694.15a88.8,88.8,0,0,1,8.24,20c1.69,6.11,2.8,13-.69,18.73-2.49,4.08-6.84,6.69-11.24,8.35a74.58,74.58,0,0,1-15.76,3.67c-14.94,2.14-29.88,4.44-44.86,6.36-11.83,1.51-25.15,2.67-36.16-2.92-5.08-2.58-10-6.67-11.87-12.23-2.19-6.43.44-13.31,3.28-19.11,2.72-5.55,6.37-10.68,11.94-13.65,6-3.19,13.14-4.08,19.72-5.41l11.67-2.38,5.35-1.09a29.41,29.41,0,0,1,2.91-.59c-.29,0-.2,0-.13,0,1.15-.07,2.34.06,3.48.09l18.59.49,37,1h.71c3.22.09,3.22-4.91,0-5L140,689.49,119.43,689c-1.57,0-3.15-.13-4.72-.12a26.09,26.09,0,0,0-4.86.87L97.7,692.18c-3.8.78-7.6,1.53-11.39,2.32a62.48,62.48,0,0,0-10.25,2.83,31,31,0,0,0-15.27,13.22,59.77,59.77,0,0,0-4.41,9.11A31.72,31.72,0,0,0,53.88,731c0,6.86,3.6,13.12,8.79,17.42C73.1,757,87.1,758.1,100.07,757c7.18-.58,14.32-1.73,21.45-2.75l24.06-3.42c11.6-1.66,25-2.57,34.28-10.68a21.3,21.3,0,0,0,7-16.81c-.19-7.41-2.78-14.9-5.61-21.67a98.88,98.88,0,0,0-4.91-10.09C174.79,688.82,170.47,691.33,172.05,694.15Z"/><path d="M423.61,644.16a89.93,89.93,0,0,1,20.94,6.15c5.36,2.36,10.89,5.42,13.58,10.87,2.76,5.6,1.35,12.17-.75,17.73-2.42,6.38-6.2,12.17-9.68,18l-11.94,20c-3.41,5.7-6.72,11.46-10.32,17-5.92,9.15-13.23,18.72-23.67,22.93-5.34,2.15-11.93,3.12-17.29.46-5.64-2.81-8.93-8.77-11.5-14.26-2.82-6-4.34-12.58-2.62-19.14,1.82-6.92,5.79-13.26,9.06-19.56l5.25-10.12a39.85,39.85,0,0,0,2.52-4.85c.36-1.05-.1-.11.17-.5a37.71,37.71,0,0,1,2.6-3.05l12-14,23.67-27.8.46-.54a2.56,2.56,0,0,0,0-3.53,2.52,2.52,0,0,0-3.54,0l-21.74,25.52-13.4,15.74-3.3,3.88a11.41,11.41,0,0,0-1.42,2.23l-5.71,11c-3.49,6.73-7.43,13.39-10.15,20.49a30.62,30.62,0,0,0-.39,21.2c2.17,6.41,5.58,13.28,10.53,18,5.17,4.94,12.13,6.54,19.1,5.56,12.46-1.77,22-10.88,29.22-20.58a182.67,182.67,0,0,0,10-15.5q6.24-10.42,12.46-20.87c3.85-6.46,8-12.83,11.41-19.54,3.1-6.06,5.81-12.86,5.52-19.8s-3.9-12.84-9.53-16.92-12.6-6.58-19.2-8.54a93.29,93.29,0,0,0-11-2.54,2.57,2.57,0,0,0-3.07,1.75A2.51,2.51,0,0,0,423.61,644.16Z"/><path d="M60.39,147.53l-3-11.5c-.86-3.35-1.62-6.74-2.69-10-1.9-5.84-5.71-12.07-12.28-13.19a10.77,10.77,0,0,0-9,2.42,10.8,10.8,0,0,0-3.32,6.88c-.69,5.4,1.46,10.4,3.91,15.06,3.22,6.12,6.05,12.44,9.2,18.6l4.32-2.53a81.2,81.2,0,0,0-15.15-15.94,69.06,69.06,0,0,0-9.24-6.3,30.76,30.76,0,0,0-10.62-4c-3.61-.48-7.68.38-10.22,3.15A8.92,8.92,0,0,0,1,140.3c1.51,3.09,4.42,5.33,7.08,7.39a93.19,93.19,0,0,0,8.51,5.81,179.73,179.73,0,0,0,16.56,8.68,2.57,2.57,0,0,0,3.42-.9,2.51,2.51,0,0,0-.9-3.42c-9.53-4.51-19.51-9.31-27.39-16.45-1.66-1.5-3.76-3.58-3.24-6,.59-2.8,3.87-3.62,6.32-3.48,3,.17,6,1.65,8.57,3.05a58.79,58.79,0,0,1,8.25,5.35,75.32,75.32,0,0,1,15.08,15.49,2.5,2.5,0,0,0,4.32-2.53c-2.48-4.83-4.74-9.77-7.17-14.63-2.08-4.14-4.79-8.27-5.3-12.86-.43-3.81.57-8.06,5.17-8.13,5.25-.09,8.23,5.39,9.64,9.7,1.07,3.29,1.83,6.68,2.69,10l3,11.5c.81,3.11,5.63,1.79,4.83-1.33Z"/><path d="M407,47.43a41.14,41.14,0,0,1-4.49-11.89,33.59,33.59,0,0,1-.62-12.07,7.61,7.61,0,0,1,2-4.5,3.51,3.51,0,0,1,3.41-.93c1.38.6,1.79,2.61,2.19,3.9q1,3.33,1.88,6.72a134.12,134.12,0,0,1,3,15.65,2.59,2.59,0,0,0,2.5,2.5,2.53,2.53,0,0,0,2.5-2.5,68.55,68.55,0,0,1,9.81-32.76c1.4-2.31,5.91-9.73,8.59-5,1.17,2.08,1,4.75.82,7a52.08,52.08,0,0,1-2.08,9.3q-3,10.74-6.07,21.46c-.88,3.1,4,4.42,4.82,1.33q3.07-10.85,6.14-21.69c1.73-6.13,4-13.78.77-19.82A7.49,7.49,0,0,0,435.31,0c-3.32.14-5.93,2.53-7.84,5a64.08,64.08,0,0,0-9,17.33,73.65,73.65,0,0,0-4.19,21.93h5a143.79,143.79,0,0,0-3.11-16.74c-.67-2.68-1.4-5.35-2.26-8-.76-2.33-1.9-4.67-4.15-5.88-4.44-2.37-9.74.6-11.65,4.83-2,4.51-1.74,10-1.1,14.74A46,46,0,0,0,402.66,50c1.59,2.8,5.91.28,4.32-2.52Z"/><path d="M193.28,73.39c-14.92,20.51-18.59,49.75-6.09,72.32A61.08,61.08,0,0,0,213,170.4a54.8,54.8,0,0,0,35.67,5c13.34-2.72,25.48-10.23,35.26-19.53,9.95-9.45,17.06-21.43,19.24-35.08a62.06,62.06,0,0,0-5.87-38.11,62.76,62.76,0,0,0-25.58-25.87c-11-6-23.73-9-36.2-7.32-13,1.77-25,8.15-34.85,16.62a84.28,84.28,0,0,0-7,6.77c-2.18,2.36,1.35,5.91,3.53,3.54,8.28-9,18.61-16.36,30.34-20A52,52,0,0,1,262,57.76a59,59,0,0,1,26.47,20.09A55.83,55.83,0,0,1,299,111.36a55,55,0,0,1-12.08,33.94c-8,9.89-18.84,18.24-30.79,22.73a50,50,0,0,1-34.13.78,55.91,55.91,0,0,1-26.28-19.15c-14.3-19-14.09-45.61-3-66.11a69.7,69.7,0,0,1,4.83-7.64,2.51,2.51,0,0,0-.89-3.42,2.55,2.55,0,0,0-3.42.9Z"/><path d="M169.21,352.9l-42,76.39c-6.9,12.54-13.89,25-20.67,37.65-6.24,11.62-12.13,23.64-15.34,36.5-3.4,13.57-3.35,27.62-2.83,41.5.55,14.43,1.2,28.86,1.8,43.29L92,632.09l.91,21.76c.28,6.66,0,13.66,1.44,20.21a20.48,20.48,0,0,0,9,13.05c4.24,2.76,9.32,4.11,14.28,4.86a173,173,0,0,0,18.9,1.42q10.71.43,21.41.29c3.57,0,7.14-.14,10.7-.28,3.29-.13,6.87,0,10-1a13.21,13.21,0,0,0,8.94-10.43A102.94,102.94,0,0,0,188.9,665a192.54,192.54,0,0,0-.81-20.52c-1.19-13.68-3.35-27.24-4.57-40.92a198.83,198.83,0,0,1-.89-20.85c.06-3.38.36-6.74.43-10.11s-.07-6.54-.15-9.81c-.16-6.41-.12-12.91,2.29-18.95,2.62-6.58,5.49-13.07,8.32-19.55,5.39-12.34,11.18-24.48,16.74-36.74,2.65-5.84,5.2-11.72,7.57-17.68s4.47-12.2,6.7-18.31a71.11,71.11,0,0,1,8-16.44c1.19-1.71,2.51-3.8,4.72-4.22a5.08,5.08,0,0,1,4.21,1.14c1.77,1.48,1.74,3.51,1.8,5.65.11,3.58.18,7.17.24,10.75q.17,10.94,0,21.86-.3,21.51-1.8,43c-1,14.07-3.06,28.15-3.28,42.26a83.09,83.09,0,0,0,2,20.62,75.86,75.86,0,0,0,6.91,17.74c5.79,11,13.52,20.93,21.39,30.47a302.82,302.82,0,0,0,84,70.44c5.08,2.88,11.43,7.53,17.58,5.76,2.84-.82,5.12-2.82,7.12-4.9,2.43-2.54,4.78-5.14,7.17-7.71,9.68-10.42,19.7-20.62,29-31.35,7.43-8.52,15.35-19.72,13-31.68-1.16-5.9-5.06-10.59-9.51-14.42-5.3-4.55-10.93-8.76-16.41-13.11Q383.88,584,367.06,570.69c-9.16-7.3-18.57-14.91-25.09-24.78-7.16-10.87-8.78-23.37-8.28-36.14.54-13.89,2.35-27.82,4.35-41.56,2-14.12,4.67-28.14,7.73-42.07,2.43-11.05,5.06-23.32,1.4-34.41a28.41,28.41,0,0,0-9.49-13.55,51.79,51.79,0,0,0-15.13-7.72c-12.7-4.45-25.88-7.85-38.95-11a562.79,562.79,0,0,0-83-13.65c-3.24-.29-6.49-.55-9.73-.78-3.07-.21-6.3-.72-9.37-.38a15.75,15.75,0,0,0-12.3,8.28c-1.47,2.86,2.85,5.39,4.32,2.52a10.89,10.89,0,0,1,4.93-4.86c2.49-1.21,5-1,7.71-.87q10.26.65,20.48,1.66,20.43,2,40.69,5.6t40.48,8.68q10,2.53,19.81,5.42a177.86,177.86,0,0,1,17.46,5.69c5,2,9.84,4.83,13.3,9a26.11,26.11,0,0,1,5.41,14.73c.87,12-2.89,23.93-5.23,35.55q-4.15,20.55-6.8,41.37c-1.69,13.28-3.57,26.9-3.13,40.31a64.57,64.57,0,0,0,3.18,18.91,55.3,55.3,0,0,0,8.43,15.43c7.13,9.32,16.35,16.65,25.47,23.9l33.37,26.5c5.2,4.13,10.64,8.08,15.58,12.54,4.2,3.8,7.41,8.41,7.39,14.28,0,5.64-2.67,11-5.69,15.58-3.39,5.22-7.63,9.74-11.85,14.29l-28.94,31.15c-1.87,2-3.88,4.64-6.63,5.45-3,.87-6.06-1-8.58-2.41q-7.89-4.27-15.53-9a293.38,293.38,0,0,1-29.26-20.73,297.15,297.15,0,0,1-50.23-51.5c-7.39-9.73-14.56-20.07-18.49-31.75-4.36-12.93-3.71-26.58-2.47-40,2.59-28.07,4.34-56.1,4.2-84.3,0-6.92.17-14-.41-20.89a10.09,10.09,0,0,0-8-9.15c-5.15-1-8.61,2-11.45,5.86A69,69,0,0,0,220.54,448c-2.22,5.81-4.13,11.73-6.36,17.54-2.32,6-4.84,11.93-7.48,17.8-5.41,12-11.12,23.9-16.43,36q-4.11,9.36-8.06,18.78a52.63,52.63,0,0,0-3.35,9.43,51.45,51.45,0,0,0-1,9.27c-.15,6.43.43,12.84,0,19.26A164.52,164.52,0,0,0,178,596.3c.81,13.49,2.87,26.85,4.34,40.27s2.12,26.54.89,39.88c-.36,3.87-.59,8.18-4.34,10.34-2.71,1.56-5.85,1.43-8.88,1.56-3.45.14-6.9.25-10.35.31q-10.71.18-21.41-.2c-6.2-.22-12.49-.38-18.65-1.22-4.76-.65-9.67-1.8-13.74-4.45-4.63-3-6.61-7.91-7.15-13.27-.68-6.82-.68-13.74-1-20.58l-.9-21.41c-1.18-28.42-2.59-56.85-3.53-85.28-.45-13.53-.23-27.13,3.48-40.25,3.58-12.68,9.66-24.42,15.94-35.93,13.56-24.86,27.28-49.63,40.92-74.45l19.9-36.2C175.08,352.6,170.76,350.08,169.21,352.9Z"/><path d="M201.49,191.44c-7.68-4.14-17-2.64-25-.3-10.55,3.08-20.53,8-30.33,12.9-8.65,4.32-17.25,9.24-26.42,12.39a13.78,13.78,0,0,1-15.25-4.28c-2.22-2.54-3.15-5.44-4.09-8.61A106.57,106.57,0,0,0,96.69,193,134.78,134.78,0,0,0,87,174c-1.91-3.15-4.08-6.13-6-9.25-1.82-2.91-3.32-6-5.36-8.76-3.94-5.37-9.29-9.29-16.26-8.33-3.08.42-6,1.81-8.93,2.88-2.28.84-4.54,1.69-6.79,2.59-4.51,1.8-8.9,3.84-13.24,6-4.68,2.35-9.59,4.55-13.94,7.48-1.72,1.15-3.6,2-5.09,3.46a12.93,12.93,0,0,0-3.63,7.24,13.57,13.57,0,0,0,1.55,8.26c1.86,3.67,3.81,7.29,5.73,10.93,7.6,14.33,15.4,28.55,23,42.91,6.49,12.34,12.14,25.91,21.14,36.72a38.28,38.28,0,0,0,15,10.79c6.92,2.87,14.38,2.73,21.72,2.25a220,220,0,0,0,44.62-7.74,281,281,0,0,0,43.2-16.17c1.18-.54,2.75-1.69,4-1.68a4.91,4.91,0,0,1,3.22,2,7,7,0,0,1,.54,7.59c-3.44,6.92-7.86,13.43-12,20s-8.07,13-11.48,19.84c-3.13,6.28-5.92,14.12-4.63,21.22,2.56,14,18.18,15.09,29.58,16.13,31.7,2.91,63.36,7,94.26,14.86q11.58,2.93,23,6.54c6.38,2,12.62,4.62,19.08,6.41,10.25,2.84,22.53,3.84,31.09-3.69a38.15,38.15,0,0,0,6.14-7.77,96.44,96.44,0,0,0,5.63-9.63,95.44,95.44,0,0,0,7.54-19.87c3.39-13.3,4.28-28.2,1.38-41.69-3.27-15.2-10.48-29-16.51-43.24-2.84-6.67-5.94-13.28-7.46-20.4-.62-3-1.15-6-.21-9,1.05-3.29,3.73-3.47,6.77-4a521.71,521.71,0,0,0,89.21-24.13q10.89-4,21.64-8.3c5.83-2.34,11.65-5.17,16.26-9.56,5.13-4.89,7.16-12.6,7.75-19.48.33-3.83-.45-7.7-1-11.48s-1.27-7.69-2-11.51a328.34,328.34,0,0,0-12.81-45.18c-2.54-7.19-5.59-14.17-8.52-21.2-2-4.68-4.09-9.74-7-13.89-3.33-4.69-7.35-6.88-12.95-7.78a189.18,189.18,0,0,0-23.48-2.68,81.35,81.35,0,0,0-22.43,2.1c-5.74,1.41-11.36,3-13.57,9.05-1.91,5.24-.6,10.87,1.63,15.77,2.79,6.1,5.65,12.17,8.08,18.43,4.71,12.15,8.37,25.86,3.9,38.64a29.88,29.88,0,0,1-4.84,9.06c-2.08,2.5-5.68,4.34-8.49,5.91a80.43,80.43,0,0,1-18.51,7.3c-13.11,3.51-26.69,4.63-40.13,6.15-6.26.71-12.49,1.54-18.76,2.17-5.44.54-10.95,1.22-16,3.32a27.87,27.87,0,0,0-12.67,10.52,108.66,108.66,0,0,1-8,11.19c-6.16,7.06-14.13,11.36-23,14.19-5.27,1.7-11,3.59-16.54,3.68a67.89,67.89,0,0,1-15.08-1.81c-8.24-1.76-17.28-3.88-24.74-8-2.83-1.54-5.35,2.77-2.53,4.32,7.58,4.14,16.64,6.41,25,8.26a85.3,85.3,0,0,0,15.25,2.17c5.24.18,10.21-1.07,15.23-2.44,9.37-2.56,18.57-6.21,25.89-12.77a58.33,58.33,0,0,0,8.28-9.53c3-4.21,5.35-9,9.52-12.25,8.75-6.75,21.41-5.77,31.77-7.19,13-1.79,26.23-2.68,39.17-5.21,12.72-2.49,25.34-6.74,35.77-14.63,4.95-3.75,7.85-10.78,9.26-16.68A48.54,48.54,0,0,0,414.6,107c-1.93-12.94-7.67-25-13.08-36.8-2.08-4.53-4.43-10.34-1.47-15.08,1.5-2.42,4.33-3,6.89-3.73a65,65,0,0,1,11.47-2.26,103.66,103.66,0,0,1,22.41.43c3.85.43,7.69,1,11.51,1.64,2.73.44,5.34.74,7.58,2.5,3.92,3.07,5.9,8.25,7.88,12.64,2.78,6.15,5.67,12.4,8,18.72a347.5,347.5,0,0,1,13.31,43.8q2.56,11.24,4.12,22.65a28.3,28.3,0,0,1-.86,11.61c-1,3.63-2,7.08-4.68,9.82-4.54,4.62-10.74,7.25-16.64,9.61q-10.53,4.2-21.21,8.06c-14.07,5.07-28.31,9.64-42.74,13.56q-21.94,6-44.36,9.89c-3,.52-5.92.82-8.15,3.07a11.81,11.81,0,0,0-3,6.8c-.92,6.39,1.46,13.31,3.73,19.2C360.6,256.91,367.66,270,372.52,284a85.66,85.66,0,0,1,4.82,21.59,94.75,94.75,0,0,1-.6,20.75,92.45,92.45,0,0,1-15.55,39.27c-3.32,4.83-7.09,8.15-13,9.27-5.3,1-10.87.17-16-1.14-6-1.51-11.72-3.89-17.57-5.82q-11.35-3.74-22.94-6.75c-14.84-3.87-29.9-6.9-45-9.32s-30.55-4.26-45.89-5.77c-6.88-.68-14.15-.65-20.85-2.41-5.85-1.54-11-4.82-11.73-11.33-.8-7.25,3.08-15,6.43-21.14,3.57-6.6,7.61-12.92,11.59-19.28,2.06-3.28,4.1-6.58,6.06-9.92,1.68-2.87,3.87-5.93,4.72-9.18,1.33-5.07-.9-10.88-5.7-13.24a9.52,9.52,0,0,0-3.8-1c-1.71-.07-3.18.95-4.69,1.66q-5,2.37-10.13,4.57-10.47,4.5-21.29,8.11a227.79,227.79,0,0,1-43.71,10.18c-13.9,1.74-29.43,3.68-40.87-6.23-4.57-4-7.78-9.11-10.8-14.27-3.64-6.22-6.87-12.61-10.19-19-7.32-14.12-14.94-28.07-22.44-42.09q-2.88-5.4-5.75-10.82c-1.61-3.06-4.1-6.46-4.83-9.87a7.88,7.88,0,0,1,2.4-7.38,38.92,38.92,0,0,1,4.16-2.69c4.4-3,9.48-5.17,14.23-7.54,4.14-2.06,8.33-4,12.64-5.69,2.36-.92,4.73-1.8,7.11-2.67,2.88-1.06,5.85-2.54,9-2.28,7,.56,10.74,8.34,13.81,13.74,3.51,6.19,7.79,11.88,11.13,18.2a112.08,112.08,0,0,1,8.15,19.58c1.83,6,4,11.18,9.34,14.92a18,18,0,0,0,16,2.4c8.95-2.92,17.36-7.67,25.74-11.88,9.57-4.81,19.24-9.7,29.48-13C183,194.3,192,192,199,195.76,201.79,197.29,204.32,193,201.49,191.44Z"/></g></g></symbol></svg>